<svg width="24" height="24" viewBox="0 0 24 24" fill="none" xmlns="http://www.w3.org/2000/svg"><g transform="translate(2.000 2.267)"><path id="Subtract" d="M8.35352 0.492201C9.35309 -0.164067 10.6469 -0.164067 11.6465 0.492201L18.6465 5.0879C19.4911 5.6425 19.9999 6.5853 20 7.59572V14.6074C19.9999 17.3688 17.7614 19.6074 15 19.6074H5C2.23865 19.6074 0.000113517 17.3688 0 14.6074V7.59572C6.78502e-05 6.5853 0.508896 5.6425 1.35352 5.0879L8.35352 0.492201ZM5.73926 11.9346C5.36747 11.5263 4.73551 11.4965 4.32715 11.8682C3.91894 12.24 3.88909 12.872 4.26074 13.2803C4.45454 13.4931 4.6654 13.6935 4.89062 13.8799C6.19991 14.9635 8.02318 15.6074 10 15.6074C12.3093 15.6074 14.4222 14.7267 15.7393 13.2803C16.1109 12.872 16.0811 12.24 15.6729 11.8682C15.2645 11.4965 14.6325 11.5263 14.2607 11.9346C13.3761 12.906 11.8308 13.6074 10 13.6074C8.44229 13.6074 7.0823 13.098 6.16602 12.3399C6.0102 12.2109 5.86731 12.0752 5.73926 11.9346Z" fill="#2B2B2B"/></g></svg>
